<?xml version="1.0" encoding="UTF-8"?>
<svg width="292px" height="64px" viewBox="0 0 292 64" version="1.1" xmlns="http://www.w3.org/2000/svg" xmlns:xlink="http://www.w3.org/1999/xlink">
    <title>Group 29</title>
    <g id="v1" stroke="none" stroke-width="1" fill="none" fill-rule="evenodd">
        <g id="Group-29" transform="translate(0.000000, 0.455082)">
            <polygon id="Fill-1" fill="#231F20" points="167 12.5449176 169.1 12.5449176 169.1 0.544917647 167 0.544917647"></polygon>
            <polygon id="Fill-2" fill="#231F20" points="186.975244 0.544917647 186.975244 8.87436257 181.076256 0.544917647 179 0.544917647 179 12.5449176 181.023853 12.5449176 181.023853 3.98154178 187.04391 12.5449176 189 12.5449176 189 0.544917647"></polygon>
            <g id="Group-28">
                <path d="M197.560534,10.3440441 L198.729473,8.74680882 C199.555711,9.61676471 200.850463,10.37925 202.522656,10.37925 C204.249305,10.37925 204.93283,9.54542647 204.93283,8.76441176 C204.93283,6.28054412 197.937974,7.82404412 197.937974,3.45944118 C197.937974,1.50829412 199.682463,0 202.307646,0 C204.17701,0 205.687711,0.586455882 206.802193,1.65004412 L205.597576,3.19354412 C204.662424,2.27077941 203.38645,1.84552941 202.127376,1.84552941 C200.88708,1.84552941 200.095582,2.43105882 200.095582,3.31769118 C200.095582,5.51805882 207.071659,4.15151471 207.071659,8.56985294 C207.071659,10.5386029 205.669871,12.2238529 202.432521,12.2238529 C200.221395,12.2238529 198.621498,11.4613676 197.560534,10.3440441" id="Fill-3" fill="#231F20"></path>
                <path d="M223.033919,3.88589559 C223.033919,2.75004265 222.171064,2.00516029 220.984286,2.00516029 L218.107475,2.00516029 L218.107475,5.76663088 L220.984286,5.76663088 C222.171064,5.76663088 223.033919,5.02174853 223.033919,3.88589559 L223.033919,3.88589559 Z M216.004324,12.0119691 L216.004324,0.178160294 L221.27253,0.178160294 C223.7888,0.178160294 225.191527,1.88101324 225.191527,3.88589559 C225.191527,5.89077794 223.770961,7.59363088 221.27253,7.59363088 L218.107475,7.59363088 L218.107475,12.0119691 L216.004324,12.0119691 Z" id="Fill-5" fill="#231F20"></path>
                <polygon id="Fill-7" fill="#231F20" points="233.925801 12.0115059 236.028952 12.0115059 236.028952 0.178623529 233.925801 0.178623529"></polygon>
                <path d="M252.621875,3.88589559 C252.621875,2.75004265 251.75902,2.00516029 250.572242,2.00516029 L247.695432,2.00516029 L247.695432,5.76663088 L250.572242,5.76663088 C251.75902,5.76663088 252.621875,5.02174853 252.621875,3.88589559 L252.621875,3.88589559 Z M252.442544,12.0119691 L249.780743,7.59363088 L247.695432,7.59363088 L247.695432,12.0119691 L245.59228,12.0119691 L245.59228,0.178160294 L250.860486,0.178160294 C253.233104,0.178160294 254.779483,1.70405735 254.779483,3.88589559 C254.779483,5.99639559 253.376756,7.13224853 251.938351,7.36293971 L254.869618,12.0119691 L252.442544,12.0119691 Z" id="Fill-9" fill="#231F20"></path>
                <polygon id="Fill-10" fill="#231F20" points="263.87317 12.0115985 263.87317 0.178716176 272.089543 0.178716176 272.089543 2.00478971 265.976322 2.00478971 265.976322 5.07511324 271.96373 5.07511324 271.96373 6.90118676 265.976322 6.90118676 265.976322 10.1836721 272.089543 10.1836721 272.089543 12.0115985"></polygon>
                <path d="M289.83197,6.10349559 C289.83197,3.81418676 288.393565,2.00478971 285.714864,2.00478971 L283.359147,2.00478971 L283.359147,10.1836721 L285.714864,10.1836721 C288.322208,10.1836721 289.83197,8.33906912 289.83197,6.10349559 L289.83197,6.10349559 Z M281.255996,12.0115985 L281.255996,0.177789706 L285.714864,0.177789706 C289.45453,0.177789706 291.989578,2.62645147 291.989578,6.10349559 C291.989578,9.58146618 289.45453,12.0115985 285.714864,12.0115985 L281.255996,12.0115985 Z" id="Fill-11" fill="#231F20"></path>
                <polygon id="Fill-12" fill="#231F20" points="173.888441 36.5593632 169.860531 31.574025 168.818345 32.7802897 168.818345 36.5593632 166.714255 36.5593632 166.714255 24.7264809 168.818345 24.7264809 168.818345 30.3668338 173.511001 24.7264809 176.118345 24.7264809 171.245419 30.3149515 176.477007 36.5593632"></polygon>
                <polygon id="Fill-13" fill="#231F20" points="186.721325 36.5592706 188.824476 36.5592706 188.824476 24.7263882 186.721325 24.7263882"></polygon>
                <polygon id="Fill-14" fill="#231F20" points="203.079803 36.5593632 203.079803 26.5525544 199.448112 26.5525544 199.448112 24.7264809 208.815585 24.7264809 208.815585 26.5525544 205.183893 26.5525544 205.183893 36.5593632"></polygon>
                <path d="M218.430647,30.6513529 C218.430647,27.0140294 221.181644,24.5310882 224.724139,24.5310882 C227.151213,24.5310882 228.643136,25.7725588 229.541669,27.1919118 L227.743663,28.0961471 C227.169052,27.1205735 226.017952,26.3756912 224.724139,26.3756912 C222.350583,26.3756912 220.588255,28.1674853 220.588255,30.6513529 C220.588255,33.1352206 222.350583,34.9270147 224.724139,34.9270147 C226.017952,34.9270147 227.169052,34.1997353 227.743663,33.2065588 L229.541669,34.1107941 C228.625296,35.5310735 227.151213,36.7716176 224.724139,36.7716176 C221.181644,36.7716176 218.430647,34.2886765 218.430647,30.6513529" id="Fill-15" fill="#231F20"></path>
                <polygon id="Fill-16" fill="#231F20" points="248.416042 36.5593632 248.416042 31.3970691 242.177007 31.3970691 242.177007 36.5593632 240.073856 36.5593632 240.073856 24.7264809 242.177007 24.7264809 242.177007 29.5691426 248.416042 29.5691426 248.416042 24.7264809 250.520132 24.7264809 250.520132 36.5593632"></polygon>
                <polygon id="Fill-17" fill="#231F20" points="261.914141 36.5593632 261.914141 24.7264809 270.130514 24.7264809 270.130514 26.5525544 264.017293 26.5525544 264.017293 29.6228779 270.004701 29.6228779 270.004701 31.4489515 264.017293 31.4489515 264.017293 34.7314368 270.130514 34.7314368 270.130514 36.5593632"></polygon>
                <polygon id="Fill-18" fill="#231F20" points="289.490866 36.5593632 283.233991 28.1145838 283.233991 36.5593632 281.13084 36.5593632 281.13084 24.7264809 283.288448 24.7264809 289.41857 32.9405691 289.41857 24.7264809 291.52266 24.7264809 291.52266 36.5593632"></polygon>
                <path d="M175.290886,55.1992103 C175.290886,52.9099015 173.852481,51.1005044 171.17378,51.1005044 L168.818063,51.1005044 L168.818063,59.2793868 L171.17378,59.2793868 C173.781124,59.2793868 175.290886,57.4347838 175.290886,55.1992103 L175.290886,55.1992103 Z M166.714912,61.1073132 L166.714912,49.2735044 L171.17378,49.2735044 C174.913446,49.2735044 177.448494,51.7221662 177.448494,55.1992103 C177.448494,58.6771809 174.913446,61.1073132 171.17378,61.1073132 L166.714912,61.1073132 Z" id="Fill-19" fill="#231F20"></path>
                <polygon id="Fill-20" fill="#231F20" points="192.096284 61.1072206 192.096284 49.2743382 200.312657 49.2743382 200.312657 51.1004118 194.199435 51.1004118 194.199435 54.1707353 200.186844 54.1707353 200.186844 55.9968088 194.199435 55.9968088 194.199435 59.2792941 200.312657 59.2792941 200.312657 61.1072206"></polygon>
                <path d="M214.314198,59.4397588 L215.483137,57.8425235 C216.309375,58.7124794 217.604127,59.4749647 219.27632,59.4749647 C221.00297,59.4749647 221.686494,58.6411412 221.686494,57.8601265 C221.686494,55.3762588 214.691639,56.9197588 214.691639,52.5551559 C214.691639,50.6040088 216.436127,49.0957147 219.061311,49.0957147 C220.930674,49.0957147 222.441375,49.6821706 223.555857,50.7457588 L222.35124,52.2892588 C221.416089,51.3664941 220.140114,50.9412441 218.881041,50.9412441 C217.640745,50.9412441 216.849246,51.5267735 216.849246,52.4134059 C216.849246,54.6137735 223.825323,53.2472294 223.825323,57.6655676 C223.825323,59.6343176 222.423536,61.3195676 219.186185,61.3195676 C216.97506,61.3195676 215.375163,60.5570824 214.314198,59.4397588" id="Fill-21" fill="#231F20"></path>
                <polygon id="Fill-22" fill="#231F20" points="238.384669 61.1070353 240.48782 61.1070353 240.48782 49.2741529 238.384669 49.2741529"></polygon>
                <path d="M255.119461,55.1992103 C255.119461,51.491475 257.941815,49.0789456 261.412953,49.0789456 C263.749892,49.0789456 265.278432,50.1786662 266.249262,51.5452103 L264.522612,52.5022544 C263.893545,51.6156221 262.761223,50.9235485 261.412953,50.9235485 C259.039397,50.9235485 257.277069,52.7153426 257.277069,55.1992103 C257.277069,57.6830779 259.039397,59.4934015 261.412953,59.4934015 C262.634471,59.4934015 263.714214,58.9245485 264.253146,58.4279603 L264.253146,56.5833574 L260.674972,56.5833574 L260.674972,54.7554309 L266.357236,54.7554309 L266.357236,59.1913721 C265.170458,60.4865779 263.498265,61.3380044 261.412953,61.3380044 C257.941815,61.3380044 255.119461,58.9069456 255.119461,55.1992103" id="Fill-23" fill="#231F20"></path>
                <polygon id="Fill-24" fill="#231F20" points="289.527107 61.1072206 283.270233 52.6624412 283.270233 61.1072206 281.167082 61.1072206 281.167082 49.2743382 283.324689 49.2743382 289.454812 57.4884265 289.454812 49.2743382 291.558902 49.2743382 291.558902 61.1072206"></polygon>
                <polygon id="Fill-25" fill="#45A1B1" points="0 62.5449176 16.3397942 62.5449176 16.3397942 0.0201970588 0 0.0201970588"></polygon>
                <polygon id="Fill-26" fill="#45A1B1" points="60.3242894 62.5449176 43.6990675 39.0162706 39.4242251 44.2656529 39.4242251 62.5449176 23.0844309 62.5449176 23.0844309 0.0201970588 39.4242251 0.0201970588 39.4242251 25.7047412 58.8990289 0.0201970588 79.0395177 0.0201970588 54.4345273 29.2670206 80.3690096 62.5449176"></polygon>
                <path d="M128.342732,31.2349368 C128.342732,21.5801868 122.45297,14.0804074 110.863105,14.0804074 L100.507902,14.0804074 L100.507902,48.4839662 L110.767336,48.4839662 C121.883053,48.4839662 128.342732,40.5163191 128.342732,31.2349368 L128.342732,31.2349368 Z M84.168108,62.5450103 L84.168108,0.0202897059 L110.767336,0.0202897059 C130.717227,0.0202897059 145.062783,11.8309368 145.062783,31.2349368 C145.062783,50.6398632 130.717227,62.5450103 110.863105,62.5450103 L84.168108,62.5450103 Z" id="Fill-27" fill="#F05A24"></path>
            </g>
        </g>
    </g>
</svg>