<?xml version="1.0" encoding="UTF-8"?>
<svg width="358px" height="97px" viewBox="0 0 358 97" version="1.1" xmlns="http://www.w3.org/2000/svg" xmlns:xlink="http://www.w3.org/1999/xlink">
    <title>Logo</title>
    <g id="Page-1" stroke="none" stroke-width="1" fill="none" fill-rule="evenodd">
        <g id="Home-Copy" transform="translate(-1251.000000, -5775.000000)" fill="#252728">
            <g id="Logo" transform="translate(1251.599976, 5775.599995)">
                <path d="M138.671984,81.9620163 C138.671984,85.0814022 136.062043,87.2623943 134.54511,87.2623943 L124.968515,87.2623943 L124.968515,94.6079893 L121.823986,94.6079893 L121.823986,76.4639914 L134.153534,76.4639914 C136.455322,76.4639914 138.671984,78.9852801 138.671984,81.9620163 L138.671984,81.9620163 Z M135.583639,82.0187325 C135.583639,80.9995612 134.57235,79.6091573 133.591707,79.6091573 L124.968515,79.6091573 L124.968515,84.1447271 L133.957746,84.1172284 C134.715361,84.1172284 135.612581,82.9261902 135.583639,82.0187325 L135.583639,82.0187325 Z" id="Fill-1"></path>
                <path d="M169.775981,85.130514 C169.775981,91.8028433 164.458927,95.2559893 159.396041,95.2559893 C154.048283,95.2559893 149.039983,91.7447925 149.039983,85.130514 C149.039983,79.5576325 154.247864,75.8159915 159.396041,75.8159915 C164.346343,75.8159915 169.775981,79.4415308 169.775981,85.130514 L169.775981,85.130514 Z M166.541738,85.130514 C166.541738,81.8814256 163.080621,79.2392324 159.396041,79.2392324 C155.540879,79.2392324 152.192346,81.9394764 152.192346,85.130514 C152.192346,89.5107144 154.921665,92.0649517 159.396041,92.0649517 C164.010295,92.0649517 166.541738,89.1061176 166.541738,85.130514 L166.541738,85.130514 Z" id="Fill-2"></path>
                <path d="M197.634731,88.799226 C197.771471,91.5501091 195.240112,95.2559893 189.520375,95.2559893 C183.303705,95.2559893 178.84798,91.2306064 178.84798,91.2306064 L180.884073,88.799226 C183.055238,90.6512883 186.273632,92.187359 189.300257,92.187359 C191.361363,92.2154471 194.416336,91.3482255 194.416336,89.4066322 C194.416336,88.5973424 194.11284,87.668678 193.123976,87.4966381 L184.430977,86.1361184 C181.929634,85.7270847 179.948571,83.615207 179.948571,81.1838266 C179.948571,77.0706683 184.981272,75.6820604 188.749962,75.8260122 C191.719889,76.0278958 194.361307,77.1005119 196.67088,78.9244861 L194.443017,81.2119148 C192.547,79.9953468 189.823871,78.7805344 187.264164,78.8086225 C185.476538,78.8086225 183.136949,79.7934632 183.030225,81.0100312 C182.918498,82.1686673 184.430977,82.9200253 185.723337,83.0674881 L191.664859,83.7907579 C194.416336,84.1365933 197.412945,85.5252011 197.634731,88.799226" id="Fill-3"></path>
                <polyline id="Fill-4" points="226.151975 79.4407276 218.604731 79.4407276 218.604731 94.6079893 215.553538 94.6079893 215.553538 79.4407276 208.007977 79.4407276 208.007977 76.4639914 226.151975 76.4639914 226.151975 79.4407276"></polyline>
                <path d="M66.0959926,18.4635796 C66.0959926,9.78821456 60.8196174,5.30035811 56.3938333,3.06250629 L55.5822136,2.65104711 L56.3599452,2.17014335 C57.2444243,1.61805888 58.5525044,1.14236346 59.4844268,0.840279504 C61.0449732,0.470487078 61.0195572,0.420139752 60.3045185,0.369792427 C60.2164095,0.362847968 59.4132618,0.321181216 59.0235489,0.321181216 C58.206846,0.321181216 55.3551635,0.406250835 53.0219687,1.52257257 L52.8423618,1.60764219 L52.6576718,1.54514206 C49.243447,0.444445358 46.0223844,0 43.3062542,0 C42.8419874,0 42.3828038,0.0173611468 41.9236203,0.0503473257 C27.1636641,1.13194677 15.333333,9.19272722 6.53259685,24.2413693 C0.409019576,34.7049324 -0.749952991,46.0643308 0.390381129,50.4462842 C1.64424034,55.2396968 4.83480371,57.6719935 9.88243423,57.6719935 C10.5500295,57.6719935 11.2549017,57.6268545 11.9733292,57.5383127 C20.9672274,56.4671299 27.3093829,46.4410677 31.9368011,39.1198721 L32.2333219,38.6528572 C35.8220702,40.239666 41.6762372,40.7743893 46.7916439,39.7813317 C47.0491934,39.7344566 47.3016596,39.6719565 47.5524315,39.6146647 C47.8370914,39.5504285 48.1183625,39.4896645 48.392856,39.4150115 C57.5934716,37.045215 66.0959926,29.1059626 66.0959926,18.4635796 L66.0959926,18.4635796 Z M28.9546495,31.4531896 L28.6666007,32.0156908 L28.2463884,31.8229821 C26.1944648,30.6945075 24.6101967,27.1198474 24.5729198,27.0104722 C24.4695612,26.7153327 24.2780935,26.2917207 24.1916789,26.4618599 C24.1849013,26.4514432 24.1781236,26.4375543 24.171346,26.4288738 C24.154402,26.5434573 24.1391523,26.7222771 24.1391523,26.9913749 C24.1391523,30.2083954 25.0998796,33.3247213 26.8518937,34.6302795 L27.2060242,34.8941689 C27.2060242,34.8941689 17.378479,51.8247593 12.1969906,53.3751097 C11.436203,53.6025407 10.710998,53.7032354 10.0501803,53.7032354 C8.40321924,53.7032354 5.60067447,52.9810116 5.32787537,48.14246 C5.27365443,47.8212788 4.01810082,38.9740384 11.7208629,26.0347757 C20.0844428,11.989608 27.7533168,5.61459487 39.0482161,3.64410471 C42.9589013,3.04861738 45.4937302,3.29167343 49.5891055,4.24827262 L49.2739463,4.51216205 L48.5165475,5.12327442 C40.2207439,11.793427 33.9734751,22.1753928 28.9546495,31.4531896 L28.9546495,31.4531896 Z M59.9232776,18.3073293 C58.4271185,26.7326938 53.1592154,33.1250681 46.3612652,35.4202117 C46.3002667,35.441045 46.2460457,35.454934 46.1833528,35.4740312 C44.4398107,36.0070184 40.9510322,36.3594497 40.7680365,36.3594497 C38.2586237,36.4011165 36.038954,35.8993793 34.0175296,35.1424333 L34.0378625,35.1025027 C38.4822851,26.7396383 45.2954849,14.6180856 53.0829672,5.95140112 L53.3506831,5.65626162 L53.6929528,5.85244258 C57.4545304,7.98786364 60.0791628,12.4653034 60.0791628,16.7309372 C60.0791628,17.1441325 60.0283306,17.6597585 59.9232776,18.3073293 L59.9232776,18.3073293 Z" id="Fill-10"></path>
                <path d="M336.701797,36.4782912 C332.503686,43.7431354 327.154781,48.8972128 320.192391,50.7276975 C322.209247,48.4508375 322.860064,41.6392891 323.099036,37.9143047 C323.192252,36.4748309 323.79053,29.6148387 326.366682,28.9124032 C326.932757,28.7566908 327.064954,28.0265731 326.936147,27.594039 C326.478541,26.0161542 324.675235,25.9902022 323.175304,26.0092337 C316.336637,26.0870898 312.092766,30.4643358 307.309937,35.1166736 L306.786232,35.7118406 L306.796401,35.6806981 C306.770978,35.7153009 306.738777,35.7585543 306.708269,35.8000776 L303.738915,39.1651936 C301.501731,41.3676576 297.82224,44.459412 291.800485,48.2553321 C288.729441,50.1913551 286.566829,50.1671332 286.061767,50.6567619 C288.458267,48.3401088 288.73622,43.016478 289.007394,40.2638304 C289.487033,35.4575105 289.136201,30.1598318 291.48355,29.1996059 C291.84794,29.0473538 291.94963,28.1857457 291.797095,27.6113403 C291.53609,26.6286226 290.386991,26.0334556 289.010783,26.0542172 C282.748361,26.1424542 277.626565,29.4660469 272.938646,34.8363914 L272.252237,35.6582064 C272.096312,35.8069981 271.953946,35.9350282 271.791241,36.0993912 C267.666009,40.2603701 258.20543,51.2726906 248.678752,51.3609275 C245.080613,51.3972604 240.506249,51.2086755 240.475742,46.9127459 C251.532857,43.3486642 256.547879,35.5993817 256.517372,31.2584686 C256.500424,27.6251814 254.156464,25.0472777 250.343082,24.8535023 C248.546555,24.7635352 246.841549,25.1580064 245.258571,25.8950447 C241.055376,27.6044198 234.950574,35.0094051 235.530208,44.8210106 C235.513259,45.1704982 235.591222,45.8089187 235.606475,46.0511378 C232.293069,48.343569 227.906832,50.6844441 223.798547,50.975107 C218.237788,51.3713084 215.109119,49.9993099 214.871842,43.8798162 C214.834555,42.9628437 214.670156,42.5977849 215.063358,42.1963932 C225.174755,31.832874 233.518436,19.4502853 236.470842,12.0193479 C237.89959,8.42066345 238.940219,1.82884242 233.411662,0.773459001 C225.917093,-0.657364095 217.22258,10.2892111 212.463479,26.5092432 C211.209299,30.5387317 209.938172,35.7966173 209.761909,40.9558851 C206.245122,44.2033518 201.845326,48.0719376 197.598065,50.227688 C197.531966,50.2588304 195.10835,51.3297851 192.927095,51.3297851 C186.812124,51.3297851 188.756101,45.4265585 188.76966,45.369464 C189.866219,41.334785 195.181228,36.3831337 197.062497,35.7014598 C199.286122,34.8900256 199.416625,32.0318397 196.97606,31.8051918 C194.162631,31.554322 188.779829,33.4574724 184.754592,28.8137854 C184.959667,28.3276169 185.081695,27.7981951 185.073221,27.2289801 C185.042714,25.1510859 183.437703,23.4884244 181.486946,23.5161066 C179.534494,23.5437888 177.982024,25.2531639 178.005751,27.3310582 C178.024395,28.581947 178.617588,29.6702031 179.505682,30.3414961 C178.700635,32.5716424 177.261718,36.4921323 175.231304,39.0873374 C170.806085,44.7345038 162.994582,51.1948344 154.39498,51.3609275 C151.422236,51.4214823 146.376707,51.2328974 145.453021,47.8193376 C155.893216,44.231034 163.408122,35.9748214 163.31999,31.6166069 C163.250502,27.98678 160.872646,25.4417488 157.064348,25.2998776 C148.141032,24.976342 140.276989,35.9108063 140.410881,45.673968 C140.415966,45.9334885 140.448168,46.1739775 140.468506,46.419657 C134.23998,49.8124551 128.313136,50.0823565 123.957405,49.9647072 C127.465718,46.45772 130.275757,39.6150291 130.275757,34.8052489 C130.275757,31.035281 128.604648,28.3016649 125.82681,27.5680869 C123.518443,26.9590788 121.069404,27.1078705 118.477998,28.670184 C117.101791,29.5041099 115.866254,30.744618 115.200184,31.1961837 C115.445935,30.6131276 116.600119,28.1995868 115.959471,28.1788252 C114.874775,28.1424923 112.734196,28.0542553 110.800387,28.0144622 C110.188551,28.0040814 109.06318,27.8950827 109.390283,28.5335032 C110.30041,30.327655 110.24787,31.4574343 109.871617,32.4263109 C105.454872,37.7966554 92.0012573,51.4457042 84.8931117,50.8505372 C82.1525606,50.620429 82.0000253,49.4577771 82.1932367,47.4231363 C82.3694997,45.6064927 84.70329,41.3953398 85.6269761,39.7430592 C86.6133711,38.0267636 87.6624751,36.0319159 88.6522598,34.31216 C89.1827437,33.4332505 89.3742603,32.9401615 89.9047442,32.0958548 C91.3114587,29.8484071 92.8113893,29.7601702 92.8656241,29.0542744 C92.8808776,28.8656895 92.4639478,28.8760703 92.4639478,28.8760703 L87.226902,28.6148196 C86.1744083,28.6961361 85.7693423,29.6857743 85.1947927,30.7982522 C84.2422944,28.6009785 82.0254478,27.4019938 79.8306342,27.3102965 C70.1192192,26.9019843 60.0230763,36.2585638 59.6230948,46.1462954 C59.4332731,50.8366961 63.0686981,54.0807025 68.1464292,54.1308765 C71.3835675,54.1585587 75.4054152,52.4180411 77.3510879,49.6913456 L77.5290458,50.7155865 C78.4120557,53.1983328 81.2254848,54.1897011 83.6101202,54.340223 C91.8860084,54.8644545 98.329778,48.4508375 103.563434,43.8625148 C98.817891,52.4180411 92.3809008,63.8974984 87.8133155,71.279992 L94.4502965,69.7765031 L105.41928,50.9387742 C107.015817,53.9993861 109.441128,54.8644545 111.935928,55.0547695 C115.276451,55.3073695 117.979716,54.2969696 119.952506,53.1793013 C129.61816,54.5530298 136.499198,52.6585301 141.451511,49.9439455 C143.349728,53.4889957 147.554618,54.8402325 151.445964,55.1084037 L151.427321,55.1153243 C154.249224,55.3610037 157.005028,55.0634202 159.677786,54.3990477 C159.838796,54.3575244 160.216744,54.2537162 161.074332,54.0063066 C167.014735,52.2363767 172.689048,48.4006635 177.729493,42.1289178 C177.821014,42.0164589 180.195481,38.8433881 181.254754,37.1686157 C182.600454,35.1062927 183.537699,33.3086806 184.202075,32.0249192 C186.581626,34.2516052 190.647539,34.5768709 191.755963,34.8467722 C191.262765,34.8796448 176.924446,47.4646596 185.39863,53.7658176 C185.927419,54.2052724 191.896634,56.9804117 197.030295,54.0564806 C197.826868,53.6049149 205.868869,49.4370155 209.817838,45.4092571 C210.204261,50.3937811 213.649864,54.9492312 220.986813,54.9492312 C226.147591,54.9492312 232.02698,52.6273876 236.569143,49.772662 C238.733449,53.9820847 244.014561,55.1862599 248.327921,55.1447366 C256.337719,55.073801 262.944193,49.6100291 267.366022,45.7518242 C267.499915,52.5062781 273.736914,55.1897202 280.953529,54.8782956 L280.931496,54.8506134 C288.607412,54.5478394 295.818943,51.0598837 301.554271,45.3314009 C301.332247,51.3124837 305.77272,55.0772613 312.999504,54.7623764 C326.249738,54.5668709 334.062936,46.8452706 338.255962,40.9766467 L336.701797,36.4782912 L336.701797,36.4782912 Z M76.259613,46.0044241 C73.3258505,50.50624 64.19068,52.7017835 64.7042156,45.0961023 C65.0889435,39.3745401 73.1394184,30.8726481 79.0001641,31.1217878 C80.0340146,31.1667713 81.0932876,31.4937672 81.8407106,32.1460287 L81.867828,32.1321877 C82.9694719,33.0560807 83.0660776,33.9367203 82.833885,34.6305051 L76.259613,46.0044241 L76.259613,46.0044241 Z M112.025754,51.4612755 C108.722517,51.4612755 107.041239,48.3660608 107.561554,46.5286556 C107.600535,46.3902446 111.302059,39.1444319 112.817243,36.8070172 C115.183235,33.1529683 119.147459,31.1131371 122.126982,31.4747357 C124.674321,31.7775096 124.835331,33.4176793 124.835331,35.6305242 C124.835331,41.2932618 119.108477,51.4612755 112.025754,51.4612755 L112.025754,51.4612755 Z M145.237776,41.3001823 C145.869951,37.4783102 149.132511,32.4851356 152.712007,30.5283509 C153.598406,30.0075797 154.701745,29.5041099 156.308451,29.5248716 C157.847362,29.5404428 158.765964,30.327655 158.782912,31.9816658 C158.81003,33.6945011 157.003334,35.8502515 155.935586,37.045776 C151.627311,41.8711274 147.480046,43.5112971 144.949654,44.4836339 C144.949654,44.4836339 144.847964,43.649708 145.237776,41.3001823 L145.237776,41.3001823 Z M225.689985,10.0020084 C228.513583,5.95867885 230.789749,3.71469148 233.008291,4.7043297 C233.852319,5.07976938 233.942146,6.02615418 233.772662,7.16804444 C232.640511,14.7841064 221.700339,33.3467437 215.083696,37.4921513 C214.646429,37.7655129 216.54973,23.090493 225.689985,10.0020084 L225.689985,10.0020084 Z M240.167281,41.3071029 C240.736746,36.5250049 242.011264,31.5214494 246.028027,29.5369825 C246.966967,29.0715757 248.004207,28.3656799 249.692264,28.5473443 C251.273547,28.720358 252.088763,29.6771236 252.054867,31.3691973 C252.005716,34.2273833 249.52956,37.0630774 248.297413,38.158254 C244.695885,41.3607371 241.780766,42.7465766 240.085929,43.2811889 L240.167281,41.3071029 L240.167281,41.3071029 Z M278.051969,51.4145618 C273.657257,51.4924179 271.631927,48.8193566 271.1811,45.5684297 C271.760734,45.5286365 272.367486,45.3158297 272.843735,44.8279312 C274.986009,42.6427684 273.257275,40.246529 273.187787,40.1652126 C274.24706,39.0094813 276.304592,36.4073556 276.304592,36.4073556 C279.956965,32.5560712 283.575442,29.8276455 285.816016,29.9971989 C283.083939,36.0942008 285.543147,51.0598837 278.051969,51.4145618 L278.051969,51.4145618 Z M311.450423,51.6239083 C307.184519,51.5962261 305.599846,49.1671141 305.379517,46.1099625 C306.121856,46.2276118 306.952326,46.0321063 307.577721,45.3936859 C309.923375,43.0009067 307.709918,40.4835578 307.465862,40.3105441 C311.599569,35.6374447 316.299351,30.9833769 319.8941,29.7740113 C316.434938,35.6841584 319.212775,51.670622 311.450423,51.6239083 L311.450423,51.6239083 Z" id="Fill-11"></path>
                <path d="M354.311734,37.9840273 C352.918478,39.4453394 351.233301,40.1759955 349.257862,40.1759955 C347.280765,40.1759955 345.600564,39.4453394 344.213942,37.9840273 C342.833955,36.5296409 342.143961,34.7687944 342.143961,32.6980251 C342.143961,30.6497642 342.84059,28.8975748 344.232187,27.4431884 C345.618809,25.9957276 347.294034,25.2719972 349.257862,25.2719972 C351.233301,25.2719972 352.918478,25.9957276 354.311734,27.4431884 C355.703332,28.8906492 356.39996,30.6428386 356.39996,32.6980251 C356.39996,34.7618688 355.703332,36.5227152 354.311734,37.9840273 L354.311734,37.9840273 Z M344.922181,28.1738444 C343.731279,29.4256556 343.134169,30.9371787 343.134169,32.7084136 C343.134169,34.4934998 343.727961,36.0154114 344.913888,37.2741482 C346.10479,38.5311537 347.552782,39.1613878 349.257862,39.1613878 C350.961284,39.1613878 352.409276,38.5311537 353.601837,37.2741482 C354.794398,36.0154114 355.389849,34.4934998 355.389849,32.7084136 C355.389849,30.9371787 354.794398,29.4256556 353.601837,28.1738444 C352.402641,26.9151076 350.954649,26.2866048 349.257862,26.2866048 C347.566051,26.2866048 346.121377,26.9151076 344.922181,28.1738444 L344.922181,28.1738444 Z M349.121854,28.5893834 C350.093816,28.5893834 350.805372,28.6880739 351.259839,28.8837235 C352.069255,29.2352002 352.473962,29.9294966 352.473962,30.9562242 C352.473962,31.6868803 352.218532,32.2253495 351.70933,32.5699006 C351.437313,32.7516989 351.062461,32.8850177 350.57648,32.9646626 C351.188518,33.066816 351.638009,33.3334535 351.919977,33.7663066 C352.205263,34.1991597 352.347906,34.6233558 352.347906,35.0354319 C352.347906,35.0354319 352.35454,36.022337 352.36781,36.2387636 C352.37942,36.4551901 352.483914,36.7668444 352.483914,36.7668444 L351.191835,36.7668444 C351.1852,36.7391418 351.123831,35.6847116 351.123831,35.6847116 C351.123831,34.7410918 350.876693,34.1195147 350.384078,33.8147862 C350.093816,33.6381821 349.581297,33.5498801 348.849837,33.5498801 L347.760112,33.5498801 L347.760112,36.7668444 L346.380124,36.7668444 L346.380124,28.5893834 L349.121854,28.5893834 L349.121854,28.5893834 Z M350.611311,29.8775543 C350.032446,29.3806389 347.760112,29.5745571 347.760112,29.5745571 L347.760112,32.5352724 L349.007408,32.5352724 C349.591249,32.5352724 351.133782,32.3829081 351.133782,31.0756917 C351.133782,30.4800858 350.919818,30.1424604 350.611311,29.8775543 L350.611311,29.8775543 Z" id="Fill-12"></path>
            </g>
        </g>
    </g>
</svg>