<?xml version="1.0" encoding="UTF-8"?>
<svg width="75px" height="75px" viewBox="0 0 75 75" version="1.1" xmlns="http://www.w3.org/2000/svg" xmlns:xlink="http://www.w3.org/1999/xlink">
    <title>Group 18</title>
    <g id="Page-1" stroke="none" stroke-width="1" fill="none" fill-rule="evenodd">
        <g id="Artboard" transform="translate(-1200.000000, -732.000000)">
            <g id="Group-18" transform="translate(1200.000000, 732.000000)">
                <circle id="Oval" fill="#F1F7F7" cx="37.26" cy="37.26" r="37.26"></circle>
                <g id="Group-5" transform="translate(8.000000, 12.000000)" fill="#87DBDB">
                    <path d="M29.2577826,9.10447802 C18.3533478,9.10447802 9.14184783,14.9420404 9.14184783,21.8507858 C9.14184783,22.3536253 9.55202174,22.7601354 10.057,22.7601354 C10.5619783,22.7601354 10.9702174,22.3536253 10.9702174,21.8507858 C10.9702174,16.0305627 19.5161522,10.9251039 29.2577826,10.9251039 C29.7627609,10.9251039 30.171,10.5185938 30.171,10.0138277 C30.171,9.51098814 29.7627609,9.10447802 29.2577826,9.10447802" id="Fill-11"></path>
                    <path d="M29.2577826,40.0595492 C27.5803261,40.0595492 25.8603043,39.9343209 24.1441522,39.6819379 C23.968087,39.6549656 23.7881522,39.6434061 23.6140217,39.6434061 C22.5286087,39.6434061 21.4876957,40.1250532 20.7873043,40.9746786 C20.0056522,41.9244866 17.7787174,44.0398805 15.1454783,45.5984904 C15.859413,43.9705233 16.4185652,42.1421911 16.4553261,40.2599144 C16.4669348,40.1423925 16.4708043,40.0248706 16.4708043,39.924688 C16.4708043,38.5568104 15.7007609,37.3026014 14.4779783,36.6803134 C7.70043478,33.2355736 3.65673913,27.6908527 3.65673913,21.8513638 C3.65673913,11.8099859 15.1416087,3.64125176 29.2577826,3.64125176 C43.3739565,3.64125176 54.8588261,11.8099859 54.8588261,21.8513638 C54.8588261,31.8908151 43.3739565,40.0595492 29.2577826,40.0595492 M29.2577826,1.20792265e-13 C13.0984783,1.20792265e-13 0,9.78321506 0,21.8513638 C0,29.3650579 5.08073913,35.9905948 12.8140652,39.924688 C12.8140652,39.9747793 12.798587,40.0056047 12.798587,40.0595492 C12.798587,43.3251162 10.351087,46.8372866 9.27534783,48.6829581 L9.27728261,48.6829581 C9.19215217,48.8833233 9.14184783,49.1029544 9.14184783,49.3341449 C9.14184783,50.2473478 9.88286957,50.9852311 10.7999565,50.9852311 C10.9702174,50.9852311 11.2720435,50.9370664 11.2662391,50.9601854 C16.9796522,50.0296433 22.3641522,44.8008828 23.6140217,43.2846579 C25.4404565,43.5524536 27.3249348,43.7008009 29.2577826,43.7008009 C45.4151522,43.7008009 58.5155652,33.9175859 58.5155652,21.8513638 C58.5155652,9.78321506 45.4151522,1.20792265e-13 29.2577826,1.20792265e-13" id="Fill-12"></path>
                </g>
            </g>
        </g>
    </g>
</svg>